<mxfile host="65bd71144e">
    <diagram id="Gt9d1nDzaVi8h4IFC0yW" name="Dashboard">
        <mxGraphModel dx="1628" dy="1193" grid="1" gridSize="10" guides="1" tooltips="1" connect="1" arrows="1" fold="1" page="1" pageScale="1" pageWidth="827" pageHeight="1169" math="0" shadow="0">
            <root>
                <mxCell id="0"/>
                <mxCell id="1" parent="0"/>
                <mxCell id="9CufxK8zm7W179fj_umO-12" value="" style="rounded=0;whiteSpace=wrap;html=1;dashed=1;" vertex="1" parent="1">
                    <mxGeometry x="39" y="720" width="781" height="220" as="geometry"/>
                </mxCell>
                <mxCell id="3" value="cc" style="html=1;shadow=0;dashed=0;shape=mxgraph.bootstrap.rect;fillColor=#222222;strokeColor=none;whiteSpace=wrap;rounded=0;fontSize=12;fontColor=#000000;align=center;" vertex="1" parent="1">
                    <mxGeometry x="40" y="70" width="1150" height="40" as="geometry"/>
                </mxCell>
                <mxCell id="4" value="Gandalf.Inc" style="html=1;shadow=0;dashed=0;fillColor=none;strokeColor=none;shape=mxgraph.bootstrap.rect;fontColor=#999999;fontSize=14;whiteSpace=wrap;" vertex="1" parent="3">
                    <mxGeometry width="115" height="40" as="geometry"/>
                </mxCell>
                <mxCell id="5" value="Vendas" style="html=1;shadow=0;dashed=0;shape=mxgraph.bootstrap.rect;fillColor=#000000;strokeColor=none;fontColor=#ffffff;spacingRight=30;whiteSpace=wrap;" vertex="1" parent="3">
                    <mxGeometry x="115" width="129.375" height="40" as="geometry"/>
                </mxCell>
                <mxCell id="6" value="84" style="html=1;shadow=0;dashed=0;shape=mxgraph.bootstrap.rrect;rSize=8;fillColor=#ff0000;strokeColor=none;fontColor=#ffffff;whiteSpace=wrap;" vertex="1" parent="5">
                    <mxGeometry x="1" y="0.5" width="25" height="16" relative="1" as="geometry">
                        <mxPoint x="-30" y="-8" as="offset"/>
                    </mxGeometry>
                </mxCell>
                <mxCell id="7" value="Clientes" style="html=1;shadow=0;dashed=0;fillColor=none;strokeColor=none;shape=mxgraph.bootstrap.rect;fontColor=#999999;spacingRight=30;whiteSpace=wrap;" vertex="1" parent="3">
                    <mxGeometry x="244.375" width="158.125" height="40" as="geometry"/>
                </mxCell>
                <mxCell id="8" value="42" style="html=1;shadow=0;dashed=0;shape=mxgraph.bootstrap.rrect;rSize=8;fillColor=#ff0000;strokeColor=none;fontColor=#ffffff;whiteSpace=wrap;" vertex="1" parent="7">
                    <mxGeometry x="1" y="0.5" width="25" height="16" relative="1" as="geometry">
                        <mxPoint x="-30" y="-8" as="offset"/>
                    </mxGeometry>
                </mxCell>
                <mxCell id="9" value="Categorias" style="html=1;shadow=0;dashed=0;fillColor=none;strokeColor=none;shape=mxgraph.bootstrap.rect;fontColor=#999999;whiteSpace=wrap;" vertex="1" parent="3">
                    <mxGeometry x="402.5" width="115" height="40" as="geometry"/>
                </mxCell>
                <mxCell id="10" value="Estoques" style="html=1;shadow=0;dashed=0;fillColor=none;strokeColor=none;shape=mxgraph.bootstrap.rect;fontColor=#999999;whiteSpace=wrap;" vertex="1" parent="3">
                    <mxGeometry x="517.5" width="100.625" height="40" as="geometry"/>
                </mxCell>
                <mxCell id="12" value="Log Out" style="html=1;shadow=0;dashed=0;fillColor=none;strokeColor=none;shape=mxgraph.bootstrap.rect;fontColor=#999999;whiteSpace=wrap;" vertex="1" parent="3">
                    <mxGeometry x="1049.375" width="100.625" height="40" as="geometry"/>
                </mxCell>
                <mxCell id="b5VrpOZ8Anfmy1aLH1ar-62" value="Usuários" style="html=1;shadow=0;dashed=0;fillColor=none;strokeColor=none;shape=mxgraph.bootstrap.rect;fontColor=#999999;whiteSpace=wrap;" vertex="1" parent="3">
                    <mxGeometry x="710" width="100.625" height="40" as="geometry"/>
                </mxCell>
                <mxCell id="b5VrpOZ8Anfmy1aLH1ar-61" value="Lojas" style="html=1;shadow=0;dashed=0;fillColor=none;strokeColor=none;shape=mxgraph.bootstrap.rect;fontColor=#999999;whiteSpace=wrap;" vertex="1" parent="1">
                    <mxGeometry x="657.5" y="71" width="100.625" height="40" as="geometry"/>
                </mxCell>
                <mxCell id="b5VrpOZ8Anfmy1aLH1ar-70" value="" style="rounded=0;whiteSpace=wrap;html=1;dashed=1;" vertex="1" parent="1">
                    <mxGeometry x="40" y="160" width="1150" height="160" as="geometry"/>
                </mxCell>
                <mxCell id="b5VrpOZ8Anfmy1aLH1ar-71" value="Estatísticas" style="text;html=1;strokeColor=none;fillColor=none;align=center;verticalAlign=middle;whiteSpace=wrap;rounded=0;dashed=1;" vertex="1" parent="1">
                    <mxGeometry x="40" y="130" width="60" height="30" as="geometry"/>
                </mxCell>
                <mxCell id="b5VrpOZ8Anfmy1aLH1ar-72" value="" style="html=1;shadow=0;dashed=0;shape=mxgraph.bootstrap.rrect;rSize=5;strokeColor=#2D3338;html=1;whiteSpace=wrap;fillColor=#868E96;fontColor=#ffffff;verticalAlign=middle;align=center;spacing=20;fontSize=60;" vertex="1" parent="1">
                    <mxGeometry x="60" y="190" width="250" height="100" as="geometry"/>
                </mxCell>
                <mxCell id="b5VrpOZ8Anfmy1aLH1ar-73" value="&lt;b&gt;&lt;font style=&quot;font-size: 20px&quot;&gt;5&lt;/font&gt;&lt;/b&gt;&lt;br&gt;Novas Vendas" style="fillColor=none;strokeColor=none;fontColor=#ffffff;html=1;verticalAlign=top;align=left;spacing=20;fontSize=14;dashed=1;" vertex="1" parent="b5VrpOZ8Anfmy1aLH1ar-72">
                    <mxGeometry width="260" height="120" relative="1" as="geometry"/>
                </mxCell>
                <mxCell id="b5VrpOZ8Anfmy1aLH1ar-74" value="" style="html=1;shadow=0;dashed=0;shape=mxgraph.bootstrap.rrect;rSize=5;strokeColor=#2D3338;html=1;whiteSpace=wrap;fillColor=#868E96;fontColor=#ffffff;verticalAlign=middle;align=center;spacing=20;fontSize=60;" vertex="1" parent="1">
                    <mxGeometry x="349" y="191" width="250" height="100" as="geometry"/>
                </mxCell>
                <mxCell id="b5VrpOZ8Anfmy1aLH1ar-75" value="&lt;b&gt;&lt;font style=&quot;font-size: 20px&quot;&gt;5&lt;/font&gt;&lt;/b&gt;&lt;br&gt;Novos Clientes" style="fillColor=none;strokeColor=none;fontColor=#ffffff;html=1;verticalAlign=top;align=left;spacing=20;fontSize=14;dashed=1;" vertex="1" parent="b5VrpOZ8Anfmy1aLH1ar-74">
                    <mxGeometry width="470" height="120" relative="1" as="geometry"/>
                </mxCell>
                <mxCell id="b5VrpOZ8Anfmy1aLH1ar-76" value="" style="html=1;shadow=0;dashed=0;shape=mxgraph.bootstrap.rrect;rSize=5;strokeColor=#2D3338;html=1;whiteSpace=wrap;fillColor=#868E96;fontColor=#ffffff;verticalAlign=middle;align=center;spacing=20;fontSize=60;" vertex="1" parent="1">
                    <mxGeometry x="630" y="192" width="250" height="100" as="geometry"/>
                </mxCell>
                <mxCell id="b5VrpOZ8Anfmy1aLH1ar-77" value="&lt;b&gt;&lt;font style=&quot;font-size: 20px&quot;&gt;5&lt;/font&gt;&lt;/b&gt;&lt;br&gt;Categorias" style="fillColor=none;strokeColor=none;fontColor=#ffffff;html=1;verticalAlign=top;align=left;spacing=20;fontSize=14;dashed=1;" vertex="1" parent="b5VrpOZ8Anfmy1aLH1ar-76">
                    <mxGeometry width="470" height="120" relative="1" as="geometry">
                        <mxPoint x="-1" as="offset"/>
                    </mxGeometry>
                </mxCell>
                <mxCell id="b5VrpOZ8Anfmy1aLH1ar-80" value="" style="html=1;shadow=0;dashed=0;shape=mxgraph.bootstrap.rrect;rSize=5;strokeColor=#2D3338;html=1;whiteSpace=wrap;fillColor=#868E96;fontColor=#ffffff;verticalAlign=middle;align=center;spacing=20;fontSize=60;" vertex="1" parent="1">
                    <mxGeometry x="913" y="191" width="250" height="100" as="geometry"/>
                </mxCell>
                <mxCell id="b5VrpOZ8Anfmy1aLH1ar-81" value="&lt;b&gt;&lt;font style=&quot;font-size: 20px&quot;&gt;5&lt;/font&gt;&lt;/b&gt;&lt;br&gt;Produtos com Estoque Baixo" style="fillColor=none;strokeColor=none;fontColor=#ffffff;html=1;verticalAlign=top;align=left;spacing=20;fontSize=14;dashed=1;" vertex="1" parent="b5VrpOZ8Anfmy1aLH1ar-80">
                    <mxGeometry width="470" height="120" relative="1" as="geometry"/>
                </mxCell>
                <mxCell id="b5VrpOZ8Anfmy1aLH1ar-83" value="" style="rounded=0;whiteSpace=wrap;html=1;dashed=1;" vertex="1" parent="1">
                    <mxGeometry x="40" y="366" width="560" height="320" as="geometry"/>
                </mxCell>
                <mxCell id="b5VrpOZ8Anfmy1aLH1ar-84" value="Vendas" style="text;html=1;strokeColor=none;fillColor=none;align=center;verticalAlign=middle;whiteSpace=wrap;rounded=0;dashed=1;" vertex="1" parent="1">
                    <mxGeometry x="40" y="336" width="60" height="30" as="geometry"/>
                </mxCell>
                <mxCell id="b5VrpOZ8Anfmy1aLH1ar-82" value="" style="verticalLabelPosition=bottom;shadow=0;dashed=0;align=center;html=1;verticalAlign=top;strokeWidth=1;shape=mxgraph.mockup.graphics.lineChart;strokeColor=none;strokeColor2=#666666;strokeColor3=#008cff;strokeColor4=#dddddd;" vertex="1" parent="1">
                    <mxGeometry x="70" y="401" width="470" height="259" as="geometry"/>
                </mxCell>
                <mxCell id="b5VrpOZ8Anfmy1aLH1ar-88" value="" style="rounded=0;whiteSpace=wrap;html=1;dashed=1;" vertex="1" parent="1">
                    <mxGeometry x="630" y="366" width="560" height="320" as="geometry"/>
                </mxCell>
                <mxCell id="b5VrpOZ8Anfmy1aLH1ar-89" value="Clientes Novos" style="text;html=1;strokeColor=none;fillColor=none;align=center;verticalAlign=middle;whiteSpace=wrap;rounded=0;dashed=1;" vertex="1" parent="1">
                    <mxGeometry x="630" y="336" width="120" height="30" as="geometry"/>
                </mxCell>
                <mxCell id="b5VrpOZ8Anfmy1aLH1ar-90" value="" style="verticalLabelPosition=bottom;shadow=0;dashed=0;align=center;html=1;verticalAlign=top;strokeWidth=1;shape=mxgraph.mockup.graphics.lineChart;strokeColor=none;strokeColor2=#666666;strokeColor3=#008cff;strokeColor4=#dddddd;" vertex="1" parent="1">
                    <mxGeometry x="660" y="401" width="470" height="259" as="geometry"/>
                </mxCell>
                <mxCell id="b5VrpOZ8Anfmy1aLH1ar-211" value="&lt;table border=&quot;1&quot; width=&quot;100%&quot; cellpadding=&quot;4&quot; style=&quot;width: 100% ; height: 100% ; border-collapse: collapse&quot;&gt;&lt;tbody&gt;&lt;tr style=&quot;background-color: #a7c942 ; color: #ffffff ; border: 1px solid #98bf21&quot;&gt;&lt;th align=&quot;left&quot;&gt;Status da Venda&lt;/th&gt;&lt;th align=&quot;left&quot;&gt;Hoje&lt;/th&gt;&lt;th align=&quot;left&quot;&gt;Semana&lt;/th&gt;&lt;td&gt;Mensal&lt;/td&gt;&lt;td&gt;Anual&lt;/td&gt;&lt;td&gt;Total&lt;/td&gt;&lt;/tr&gt;&lt;tr style=&quot;border: 1px solid #98bf21&quot;&gt;&lt;td&gt;Value 1&lt;/td&gt;&lt;td&gt;Value 2&lt;/td&gt;&lt;td&gt;Value 3&lt;/td&gt;&lt;td&gt;&lt;br&gt;&lt;/td&gt;&lt;td&gt;&lt;br&gt;&lt;/td&gt;&lt;td&gt;&lt;br&gt;&lt;/td&gt;&lt;/tr&gt;&lt;tr style=&quot;background-color: #eaf2d3 ; border: 1px solid #98bf21&quot;&gt;&lt;td&gt;Value 4&lt;/td&gt;&lt;td&gt;Value 5&lt;/td&gt;&lt;td&gt;Value 6&lt;/td&gt;&lt;td&gt;&lt;br&gt;&lt;/td&gt;&lt;td&gt;&lt;br&gt;&lt;/td&gt;&lt;td&gt;&lt;br&gt;&lt;/td&gt;&lt;/tr&gt;&lt;tr style=&quot;border: 1px solid #98bf21&quot;&gt;&lt;td&gt;Value 7&lt;/td&gt;&lt;td&gt;Value 8&lt;/td&gt;&lt;td&gt;Value 9&lt;/td&gt;&lt;td&gt;&lt;br&gt;&lt;/td&gt;&lt;td&gt;&lt;br&gt;&lt;/td&gt;&lt;td&gt;&lt;br&gt;&lt;/td&gt;&lt;/tr&gt;&lt;tr style=&quot;background-color: #eaf2d3 ; border: 1px solid #98bf21&quot;&gt;&lt;td&gt;Value 10&lt;/td&gt;&lt;td&gt;Value 11&lt;/td&gt;&lt;td&gt;Value 12&lt;/td&gt;&lt;td&gt;&lt;br&gt;&lt;/td&gt;&lt;td&gt;&lt;br&gt;&lt;/td&gt;&lt;td&gt;&lt;br&gt;&lt;/td&gt;&lt;/tr&gt;&lt;/tbody&gt;&lt;/table&gt;" style="text;html=1;strokeColor=#c0c0c0;fillColor=#ffffff;overflow=fill;rounded=0;dashed=1;" vertex="1" parent="1">
                    <mxGeometry x="60" y="763" width="740" height="160" as="geometry"/>
                </mxCell>
                <mxCell id="b5VrpOZ8Anfmy1aLH1ar-215" value="" style="edgeStyle=none;html=1;" edge="1" parent="1" source="b5VrpOZ8Anfmy1aLH1ar-212" target="b5VrpOZ8Anfmy1aLH1ar-211">
                    <mxGeometry relative="1" as="geometry"/>
                </mxCell>
                <mxCell id="b5VrpOZ8Anfmy1aLH1ar-212" value="Vendas Totais" style="text;html=1;strokeColor=none;fillColor=none;align=center;verticalAlign=middle;whiteSpace=wrap;rounded=0;dashed=1;" vertex="1" parent="1">
                    <mxGeometry x="50" y="733" width="100" height="30" as="geometry"/>
                </mxCell>
                <mxCell id="9CufxK8zm7W179fj_umO-13" value="" style="rounded=0;whiteSpace=wrap;html=1;dashed=1;" vertex="1" parent="1">
                    <mxGeometry x="840" y="720" width="350" height="220" as="geometry"/>
                </mxCell>
                <mxCell id="9CufxK8zm7W179fj_umO-14" value="&lt;table border=&quot;1&quot; width=&quot;100%&quot; cellpadding=&quot;4&quot; style=&quot;width: 100% ; height: 100% ; border-collapse: collapse&quot;&gt;&lt;tbody&gt;&lt;tr style=&quot;background-color: #a7c942 ; color: #ffffff ; border: 1px solid #98bf21&quot;&gt;&lt;th align=&quot;left&quot;&gt;Item&lt;/th&gt;&lt;td&gt;Total&lt;/td&gt;&lt;td&gt;Contagem&lt;/td&gt;&lt;/tr&gt;&lt;tr style=&quot;border: 1px solid #98bf21&quot;&gt;&lt;td&gt;Value 1&lt;/td&gt;&lt;td&gt;&lt;br&gt;&lt;/td&gt;&lt;td&gt;&lt;br&gt;&lt;/td&gt;&lt;/tr&gt;&lt;tr style=&quot;background-color: #eaf2d3 ; border: 1px solid #98bf21&quot;&gt;&lt;td&gt;Value 4&lt;/td&gt;&lt;td&gt;&lt;br&gt;&lt;/td&gt;&lt;td&gt;&lt;br&gt;&lt;/td&gt;&lt;/tr&gt;&lt;tr style=&quot;border: 1px solid #98bf21&quot;&gt;&lt;td&gt;Value 7&lt;/td&gt;&lt;td&gt;&lt;br&gt;&lt;/td&gt;&lt;td&gt;&lt;br&gt;&lt;/td&gt;&lt;/tr&gt;&lt;tr style=&quot;background-color: #eaf2d3 ; border: 1px solid #98bf21&quot;&gt;&lt;td&gt;Value 10&lt;/td&gt;&lt;td&gt;&lt;br&gt;&lt;/td&gt;&lt;td&gt;&lt;br&gt;&lt;/td&gt;&lt;/tr&gt;&lt;/tbody&gt;&lt;/table&gt;" style="text;html=1;strokeColor=#c0c0c0;fillColor=#ffffff;overflow=fill;rounded=0;dashed=1;" vertex="1" parent="1">
                    <mxGeometry x="855" y="763" width="320" height="160" as="geometry"/>
                </mxCell>
                <mxCell id="9CufxK8zm7W179fj_umO-15" value="Vendas Canceladas" style="text;html=1;strokeColor=none;fillColor=none;align=center;verticalAlign=middle;whiteSpace=wrap;rounded=0;dashed=1;" vertex="1" parent="1">
                    <mxGeometry x="845" y="733" width="130" height="30" as="geometry"/>
                </mxCell>
            </root>
        </mxGraphModel>
    </diagram>
    <diagram id="U9YYgL-1b4ZFVZlLlDnU" name="Clientes">
        <mxGraphModel dx="1396" dy="1023" grid="1" gridSize="10" guides="1" tooltips="1" connect="1" arrows="1" fold="1" page="1" pageScale="1" pageWidth="827" pageHeight="1169" math="0" shadow="0">
            <root>
                <mxCell id="KVE-M2_pVmgQvuHK_1eE-0"/>
                <mxCell id="KVE-M2_pVmgQvuHK_1eE-1" parent="KVE-M2_pVmgQvuHK_1eE-0"/>
                <mxCell id="MrlE6XzFFKqmU-khMcDZ-0" value="" style="rounded=0;whiteSpace=wrap;html=1;dashed=1;" vertex="1" parent="KVE-M2_pVmgQvuHK_1eE-1">
                    <mxGeometry x="40" y="380" width="1150" height="210" as="geometry"/>
                </mxCell>
                <mxCell id="rNKOXlH87E75fBXnkznZ-0" value="cc" style="html=1;shadow=0;dashed=0;shape=mxgraph.bootstrap.rect;fillColor=#222222;strokeColor=none;whiteSpace=wrap;rounded=0;fontSize=12;fontColor=#000000;align=center;" vertex="1" parent="KVE-M2_pVmgQvuHK_1eE-1">
                    <mxGeometry x="40" y="70" width="1150" height="40" as="geometry"/>
                </mxCell>
                <mxCell id="rNKOXlH87E75fBXnkznZ-1" value="Gandalf.Inc" style="html=1;shadow=0;dashed=0;fillColor=none;strokeColor=none;shape=mxgraph.bootstrap.rect;fontColor=#999999;fontSize=14;whiteSpace=wrap;" vertex="1" parent="rNKOXlH87E75fBXnkznZ-0">
                    <mxGeometry width="115" height="40" as="geometry"/>
                </mxCell>
                <mxCell id="rNKOXlH87E75fBXnkznZ-2" value="Vendas" style="html=1;shadow=0;dashed=0;shape=mxgraph.bootstrap.rect;fillColor=#2A2A2A;strokeColor=none;fontColor=#ffffff;spacingRight=30;whiteSpace=wrap;" vertex="1" parent="rNKOXlH87E75fBXnkznZ-0">
                    <mxGeometry x="115" width="129.375" height="40" as="geometry"/>
                </mxCell>
                <mxCell id="rNKOXlH87E75fBXnkznZ-3" value="84" style="html=1;shadow=0;dashed=0;shape=mxgraph.bootstrap.rrect;rSize=8;fillColor=#ff0000;strokeColor=none;fontColor=#ffffff;whiteSpace=wrap;" vertex="1" parent="rNKOXlH87E75fBXnkznZ-2">
                    <mxGeometry x="1" y="0.5" width="25" height="16" relative="1" as="geometry">
                        <mxPoint x="-30" y="-8" as="offset"/>
                    </mxGeometry>
                </mxCell>
                <mxCell id="rNKOXlH87E75fBXnkznZ-4" value="&lt;span style=&quot;background-color: rgb(26 , 26 , 26)&quot;&gt;Clientes&lt;/span&gt;" style="html=1;shadow=0;dashed=0;shape=mxgraph.bootstrap.rect;spacingRight=30;whiteSpace=wrap;fillColor=#1A1A1A;strokeColor=none;" vertex="1" parent="rNKOXlH87E75fBXnkznZ-0">
                    <mxGeometry x="244.375" width="158.125" height="40" as="geometry"/>
                </mxCell>
                <mxCell id="rNKOXlH87E75fBXnkznZ-5" value="42" style="html=1;shadow=0;dashed=0;shape=mxgraph.bootstrap.rrect;rSize=8;fillColor=#ff0000;strokeColor=none;fontColor=#ffffff;whiteSpace=wrap;" vertex="1" parent="rNKOXlH87E75fBXnkznZ-4">
                    <mxGeometry x="1" y="0.5" width="25" height="16" relative="1" as="geometry">
                        <mxPoint x="-30" y="-8" as="offset"/>
                    </mxGeometry>
                </mxCell>
                <mxCell id="rNKOXlH87E75fBXnkznZ-6" value="Categorias" style="html=1;shadow=0;dashed=0;fillColor=none;strokeColor=none;shape=mxgraph.bootstrap.rect;fontColor=#999999;whiteSpace=wrap;" vertex="1" parent="rNKOXlH87E75fBXnkznZ-0">
                    <mxGeometry x="402.5" width="115" height="40" as="geometry"/>
                </mxCell>
                <mxCell id="rNKOXlH87E75fBXnkznZ-7" value="Estoques" style="html=1;shadow=0;dashed=0;fillColor=none;strokeColor=none;shape=mxgraph.bootstrap.rect;fontColor=#999999;whiteSpace=wrap;" vertex="1" parent="rNKOXlH87E75fBXnkznZ-0">
                    <mxGeometry x="517.5" width="100.625" height="40" as="geometry"/>
                </mxCell>
                <mxCell id="rNKOXlH87E75fBXnkznZ-8" value="Log Out" style="html=1;shadow=0;dashed=0;fillColor=none;strokeColor=none;shape=mxgraph.bootstrap.rect;fontColor=#999999;whiteSpace=wrap;" vertex="1" parent="rNKOXlH87E75fBXnkznZ-0">
                    <mxGeometry x="1049.375" width="100.625" height="40" as="geometry"/>
                </mxCell>
                <mxCell id="rNKOXlH87E75fBXnkznZ-9" value="Usuários" style="html=1;shadow=0;dashed=0;fillColor=none;strokeColor=none;shape=mxgraph.bootstrap.rect;fontColor=#999999;whiteSpace=wrap;" vertex="1" parent="rNKOXlH87E75fBXnkznZ-0">
                    <mxGeometry x="710" width="100.625" height="40" as="geometry"/>
                </mxCell>
                <mxCell id="rNKOXlH87E75fBXnkznZ-10" value="" style="rounded=0;whiteSpace=wrap;html=1;dashed=1;" vertex="1" parent="KVE-M2_pVmgQvuHK_1eE-1">
                    <mxGeometry x="40" y="160" width="1150" height="160" as="geometry"/>
                </mxCell>
                <mxCell id="rNKOXlH87E75fBXnkznZ-11" value="Busca" style="text;html=1;strokeColor=none;fillColor=none;align=center;verticalAlign=middle;whiteSpace=wrap;rounded=0;dashed=1;" vertex="1" parent="KVE-M2_pVmgQvuHK_1eE-1">
                    <mxGeometry x="40" y="130" width="60" height="30" as="geometry"/>
                </mxCell>
                <mxCell id="6X9xBkyGpGC7z2I8G7cS-0" value="Nome" style="fillColor=none;strokeColor=none;align=left;fontSize=14;dashed=1;labelBackgroundColor=#1A1A1A;" vertex="1" parent="KVE-M2_pVmgQvuHK_1eE-1">
                    <mxGeometry x="70" y="160" width="100" height="30" as="geometry"/>
                </mxCell>
                <mxCell id="6X9xBkyGpGC7z2I8G7cS-1" value="Mark" style="html=1;shadow=0;dashed=0;shape=mxgraph.bootstrap.rrect;rSize=5;fillColor=#ffffff;strokeColor=#CED4DA;align=left;spacing=15;fontSize=14;fontColor=#6C767D;labelBackgroundColor=#1A1A1A;" vertex="1" parent="KVE-M2_pVmgQvuHK_1eE-1">
                    <mxGeometry x="70" y="190" width="260" height="40" as="geometry"/>
                </mxCell>
                <mxCell id="6X9xBkyGpGC7z2I8G7cS-2" value="Sobrenome" style="fillColor=none;strokeColor=none;align=left;fontSize=14;dashed=1;labelBackgroundColor=#1A1A1A;" vertex="1" parent="KVE-M2_pVmgQvuHK_1eE-1">
                    <mxGeometry x="340" y="160" width="100" height="30" as="geometry"/>
                </mxCell>
                <mxCell id="6X9xBkyGpGC7z2I8G7cS-3" value="Otto" style="html=1;shadow=0;dashed=0;shape=mxgraph.bootstrap.rrect;rSize=5;fillColor=#ffffff;strokeColor=#CED4DA;align=left;spacing=15;fontSize=14;fontColor=#6C767D;labelBackgroundColor=#1A1A1A;" vertex="1" parent="KVE-M2_pVmgQvuHK_1eE-1">
                    <mxGeometry x="340" y="190" width="260" height="40" as="geometry"/>
                </mxCell>
                <mxCell id="6X9xBkyGpGC7z2I8G7cS-4" value="Email" style="fillColor=none;strokeColor=none;align=left;fontSize=14;dashed=1;labelBackgroundColor=#1A1A1A;" vertex="1" parent="KVE-M2_pVmgQvuHK_1eE-1">
                    <mxGeometry x="610" y="160" width="100" height="30" as="geometry"/>
                </mxCell>
                <mxCell id="6X9xBkyGpGC7z2I8G7cS-5" value="" style="html=1;shadow=0;dashed=0;shape=mxgraph.bootstrap.rrect;rSize=5;fillColor=#ffffff;strokeColor=#CED4DA;align=left;spacingLeft=50;fontSize=14;fontColor=#6C767D;labelBackgroundColor=#1A1A1A;" vertex="1" parent="KVE-M2_pVmgQvuHK_1eE-1">
                    <mxGeometry x="610" y="190" width="260" height="40" as="geometry"/>
                </mxCell>
                <mxCell id="6X9xBkyGpGC7z2I8G7cS-6" value="@" style="html=1;shadow=0;dashed=0;shape=mxgraph.bootstrap.leftButton;rSize=5;strokeColor=#CED4DA;fillColor=#f0f0f0;whiteSpace=wrap;resizeHeight=1;fontColor=#495057;labelBackgroundColor=#1A1A1A;" vertex="1" parent="6X9xBkyGpGC7z2I8G7cS-5">
                    <mxGeometry width="40" height="40" relative="1" as="geometry"/>
                </mxCell>
                <mxCell id="6X9xBkyGpGC7z2I8G7cS-7" value="Cidade" style="fillColor=none;strokeColor=none;align=left;fontSize=14;dashed=1;labelBackgroundColor=#1A1A1A;" vertex="1" parent="KVE-M2_pVmgQvuHK_1eE-1">
                    <mxGeometry x="70" y="240" width="100" height="30" as="geometry"/>
                </mxCell>
                <mxCell id="6X9xBkyGpGC7z2I8G7cS-8" value="" style="html=1;shadow=0;dashed=0;shape=mxgraph.bootstrap.rrect;rSize=5;fillColor=#ffffff;strokeColor=#CED4DA;align=left;spacing=15;fontSize=14;fontColor=#6C767D;labelBackgroundColor=#1A1A1A;" vertex="1" parent="KVE-M2_pVmgQvuHK_1eE-1">
                    <mxGeometry x="70" y="270" width="390" height="40" as="geometry"/>
                </mxCell>
                <mxCell id="6X9xBkyGpGC7z2I8G7cS-9" value="State" style="fillColor=none;strokeColor=none;align=left;fontSize=14;dashed=1;labelBackgroundColor=#1A1A1A;" vertex="1" parent="KVE-M2_pVmgQvuHK_1eE-1">
                    <mxGeometry x="470" y="240" width="100" height="30" as="geometry"/>
                </mxCell>
                <mxCell id="6X9xBkyGpGC7z2I8G7cS-10" value="Choose..." style="html=1;shadow=0;dashed=0;shape=mxgraph.bootstrap.rrect;rSize=5;fillColor=#ffffff;strokeColor=#CED4DA;align=left;spacing=15;fontSize=14;fontColor=#6C767D;labelBackgroundColor=#1A1A1A;" vertex="1" parent="KVE-M2_pVmgQvuHK_1eE-1">
                    <mxGeometry x="470" y="270" width="200" height="40" as="geometry"/>
                </mxCell>
                <mxCell id="6X9xBkyGpGC7z2I8G7cS-11" value="" style="shape=triangle;direction=south;fillColor=#343A40;strokeColor=none;perimeter=none;dashed=1;labelBackgroundColor=#1A1A1A;" vertex="1" parent="6X9xBkyGpGC7z2I8G7cS-10">
                    <mxGeometry x="1" y="0.5" width="7" height="3" relative="1" as="geometry">
                        <mxPoint x="-17" y="1" as="offset"/>
                    </mxGeometry>
                </mxCell>
                <mxCell id="6X9xBkyGpGC7z2I8G7cS-12" value="" style="shape=triangle;direction=north;fillColor=#343A40;strokeColor=none;perimeter=none;dashed=1;labelBackgroundColor=#1A1A1A;" vertex="1" parent="6X9xBkyGpGC7z2I8G7cS-10">
                    <mxGeometry x="1" y="0.5" width="7" height="3" relative="1" as="geometry">
                        <mxPoint x="-17" y="-4" as="offset"/>
                    </mxGeometry>
                </mxCell>
                <mxCell id="6X9xBkyGpGC7z2I8G7cS-13" value="Zip" style="fillColor=none;strokeColor=none;align=left;fontSize=14;dashed=1;labelBackgroundColor=#1A1A1A;" vertex="1" parent="KVE-M2_pVmgQvuHK_1eE-1">
                    <mxGeometry x="680" y="240" width="190" height="30" as="geometry"/>
                </mxCell>
                <mxCell id="6X9xBkyGpGC7z2I8G7cS-14" value="" style="html=1;shadow=0;dashed=0;shape=mxgraph.bootstrap.rrect;rSize=5;fillColor=#ffffff;strokeColor=#CED4DA;align=left;spacing=15;fontSize=14;fontColor=#6C767D;labelBackgroundColor=#1A1A1A;" vertex="1" parent="KVE-M2_pVmgQvuHK_1eE-1">
                    <mxGeometry x="680" y="270" width="190" height="40" as="geometry"/>
                </mxCell>
                <mxCell id="6X9xBkyGpGC7z2I8G7cS-17" value="" style="aspect=fixed;html=1;points=[];align=center;image;fontSize=12;image=img/lib/azure2/general/Search_Grid.svg;dashed=1;labelBackgroundColor=#1A1A1A;fillColor=#1A1A1A;" vertex="1" parent="KVE-M2_pVmgQvuHK_1eE-1">
                    <mxGeometry x="1110" y="173" width="68" height="67" as="geometry"/>
                </mxCell>
                <mxCell id="Qwcj-sVlyxNStnz4mnrW-0" value="&lt;table border=&quot;1&quot; width=&quot;100%&quot; cellpadding=&quot;4&quot; style=&quot;width: 100% ; height: 100% ; border-collapse: collapse&quot;&gt;&lt;tbody&gt;&lt;tr style=&quot;background-color: #a7c942 ; color: #ffffff ; border: 1px solid #98bf21&quot;&gt;&lt;th align=&quot;left&quot;&gt;Email&lt;/th&gt;&lt;th align=&quot;left&quot;&gt;Nome&lt;/th&gt;&lt;th align=&quot;left&quot;&gt;Sobrenome&lt;/th&gt;&lt;td&gt;Cidade&lt;/td&gt;&lt;td&gt;Código Postal&lt;/td&gt;&lt;td&gt;Ativo&lt;/td&gt;&lt;/tr&gt;&lt;tr style=&quot;border: 1px solid #98bf21&quot;&gt;&lt;td&gt;Value 1&lt;/td&gt;&lt;td&gt;Value 2&lt;/td&gt;&lt;td&gt;Value 3&lt;/td&gt;&lt;td&gt;&lt;br&gt;&lt;/td&gt;&lt;td&gt;&lt;br&gt;&lt;/td&gt;&lt;td&gt;&lt;br&gt;&lt;/td&gt;&lt;/tr&gt;&lt;tr style=&quot;background-color: #eaf2d3 ; border: 1px solid #98bf21&quot;&gt;&lt;td&gt;Value 4&lt;/td&gt;&lt;td&gt;Value 5&lt;/td&gt;&lt;td&gt;Value 6&lt;/td&gt;&lt;td&gt;&lt;br&gt;&lt;/td&gt;&lt;td&gt;&lt;br&gt;&lt;/td&gt;&lt;td&gt;&lt;br&gt;&lt;/td&gt;&lt;/tr&gt;&lt;tr style=&quot;border: 1px solid #98bf21&quot;&gt;&lt;td&gt;Value 7&lt;/td&gt;&lt;td&gt;Value 8&lt;/td&gt;&lt;td&gt;Value 9&lt;/td&gt;&lt;td&gt;&lt;br&gt;&lt;/td&gt;&lt;td&gt;&lt;br&gt;&lt;/td&gt;&lt;td&gt;&lt;br&gt;&lt;/td&gt;&lt;/tr&gt;&lt;tr style=&quot;background-color: #eaf2d3 ; border: 1px solid #98bf21&quot;&gt;&lt;td&gt;Value 10&lt;/td&gt;&lt;td&gt;Value 11&lt;/td&gt;&lt;td&gt;Value 12&lt;/td&gt;&lt;td&gt;&lt;br&gt;&lt;/td&gt;&lt;td&gt;&lt;br&gt;&lt;/td&gt;&lt;td&gt;&lt;br&gt;&lt;/td&gt;&lt;/tr&gt;&lt;/tbody&gt;&lt;/table&gt;" style="text;html=1;strokeColor=#c0c0c0;fillColor=#ffffff;overflow=fill;rounded=0;dashed=1;" vertex="1" parent="KVE-M2_pVmgQvuHK_1eE-1">
                    <mxGeometry x="57" y="410" width="1113" height="160" as="geometry"/>
                </mxCell>
                <mxCell id="Qwcj-sVlyxNStnz4mnrW-1" value="Clientes" style="text;html=1;strokeColor=none;fillColor=none;align=center;verticalAlign=middle;whiteSpace=wrap;rounded=0;dashed=1;" vertex="1" parent="KVE-M2_pVmgQvuHK_1eE-1">
                    <mxGeometry x="10" y="350" width="100" height="30" as="geometry"/>
                </mxCell>
            </root>
        </mxGraphModel>
    </diagram>
</mxfile>